# xmcd CD database file
#
# Track frame offsets:
#	150
#	15127
#	30869
#	46067
#	60464
#	79014
#	94679
#	108467
#	125462
#	146189
#	162977
#	177469
#	194854
#
# Disc length: 2936 seconds
#
# Revision: 2
# Processed by: cddbd v1.5.2PL0 Copyright (c) Steve Scherf et al.
# Submitted via: CDex 1.70beta2
#
DISCID=a40b760d
DTITLE=Norah Jones - Feels Like Home
DYEAR=2004
DGENRE=Jazz
TTITLE0=Sunrise
TTITLE1=What Am I To You
TTITLE2=Those Sweet Words
TTITLE3=Carnival Town
TTITLE4=In The Morning
TTITLE5=Be Here To Love Me
TTITLE6=Creepin' In
TTITLE7=Toes
TTITLE8=Humble Me
TTITLE9=Above Ground
TTITLE10=The Long Way Home
TTITLE11=The Prettiest Thing
TTITLE12=Don't Miss You At All
EXTD=YEAR: 2004
EXTT0=
EXTT1=
EXTT2=
EXTT3=
EXTT4=
EXTT5=
EXTT6=
EXTT7=
EXTT8=
EXTT9=
EXTT10=
EXTT11=
EXTT12=
PLAYORDER=
